<?xml version="1.0" encoding="UTF-8"?>
<svg width="20px" height="20px" viewBox="0 0 20 20" version="1.1" xmlns="http://www.w3.org/2000/svg" xmlns:xlink="http://www.w3.org/1999/xlink">
    <!-- Generator: Sketch 43.2 (39069) - http://www.bohemiancoding.com/sketch -->
    <title>ic-add-contributor</title>
    <desc>Created with Sketch.</desc>
    <defs></defs>
    <g id="Symbols" stroke="none" stroke-width="1" fill="none" fill-rule="evenodd">
        <g id="ic-add-contributor">
            <g>
                <rect id="Bounds" x="0" y="0" width="20" height="20"></rect>
                <g id="add-collaborator" transform="translate(2.000000, 1.000000)" stroke="#545EEE" stroke-width="0.882352941" stroke-linejoin="round">
                    <path d="M4.66666667,11.5217647 L4.66666667,13.2354202 L1.54995556,14.3629412 C0.807022222,14.6320588 0.311111111,15.3442437 0.311111111,16.1434034 L0.311111111,17.3320588 L12.1333333,17.3320588 L12.1333333,16.1434034 C12.1333333,15.3442437 11.6374222,14.6320588 10.8944889,14.3629412 L7.77777778,13.2354202 L7.77777778,11.4039076" id="Stroke-469"></path>
                    <path d="M9.25555556,8.19327731 C9.25555556,10.2819328 7.8624,11.9747899 6.14444444,11.9747899 C4.42586667,11.9747899 3.03333333,10.2819328 3.03333333,8.19327731 C3.03333333,6.10462185 4.42586667,4.41176471 6.14444444,4.41176471 C7.8624,4.41176471 9.25555556,6.10462185 9.25555556,8.19327731 L9.25555556,8.19327731 Z" id="Stroke-470"></path>
                    <path d="M9.22637333,7.84859244 C9.12184,7.86182773 9.04966222,7.85741597 8.94450667,7.87821429 C7.88486222,8.08493697 7.20415111,7.69607143 6.62112889,6.66182773 C6.27081778,7.3412395 5.17632889,7.87821429 4.27784,7.87821429 C3.83544,7.87821429 3.45464,7.78619748 3.07321778,7.58451681" id="Stroke-471"></path>
                    <path d="M12.8888889,0 L12.8888889,6.17647059" id="Stroke-408" stroke-linecap="round"></path>
                    <path d="M16,3.08823529 L9.77777778,3.08823529" id="Stroke-411" stroke-linecap="round"></path>
                </g>
            </g>
        </g>
    </g>
</svg>