<?xml version="1.0" encoding="UTF-8"?>
<svg width="20px" height="20px" viewBox="0 0 20 20" version="1.1" xmlns="http://www.w3.org/2000/svg" xmlns:xlink="http://www.w3.org/1999/xlink">
    <!-- Generator: Sketch 43.2 (39069) - http://www.bohemiancoding.com/sketch -->
    <title>ic-delete</title>
    <desc>Created with Sketch.</desc>
    <defs></defs>
    <g id="Symbols" stroke="none" stroke-width="1" fill="none" fill-rule="evenodd">
        <g id="ic-delete">
            <g>
                <rect id="Bounds" x="0" y="0" width="20" height="20"></rect>
                <g id="trash-2" transform="translate(2.222222, 2.222222)" stroke="#969AA8" stroke-width="0.833333333" stroke-linecap="round" stroke-linejoin="round">
                    <polyline id="Shape" points="0.66663954 3.11111111 2.27157781 3.11111111 15.111084 3.11111111"></polyline>
                    <g id="Group-2" transform="translate(2.222222, 0.000000)">
                        <path d="M11.2345679,3.11111111 L11.2345679,14 C11.2345679,14.8591096 10.5160126,15.5555556 9.62962963,15.5555556 L1.60493827,15.5555556 C0.71855534,15.5555556 0,14.8591096 0,14 L0,3.11111111 M2.40740741,3.11111111 L2.40740741,1.55555556 C2.40740741,0.696445945 3.12596275,0 4.01234568,0 L7.22222222,0 C8.10860515,0 8.82716049,0.696445945 8.82716049,1.55555556 L8.82716049,3.11111111" id="Shape"></path>
                        <g id="Group" transform="translate(4.444444, 6.666667)">
                            <path d="M0,0.333333333 L0,5" id="Shape"></path>
                            <path d="M2.22222222,0.333333333 L2.22222222,5" id="Shape"></path>
                        </g>
                    </g>
                </g>
            </g>
        </g>
    </g>
</svg>