<?xml version="1.0" encoding="UTF-8"?>
<svg width="20px" height="20px" viewBox="0 0 20 20" version="1.1" xmlns="http://www.w3.org/2000/svg" xmlns:xlink="http://www.w3.org/1999/xlink">
    <!-- Generator: Sketch 43.2 (39069) - http://www.bohemiancoding.com/sketch -->
    <title>ic-settings</title>
    <desc>Created with Sketch.</desc>
    <defs></defs>
    <g id="Symbols" stroke="none" stroke-width="1" fill="none" fill-rule="evenodd">
        <g id="ic-settings">
            <g>
                <rect id="Bounds" x="0" y="0" width="20" height="20"></rect>
                <g id="settings" transform="translate(1.000000, 1.000000)" stroke="#545EEE" stroke-width="0.9375">
                    <circle id="Oval" stroke-linecap="round" stroke-linejoin="round" cx="8.75" cy="8.75" r="2.38636364"></circle>
                    <path d="M14.6363636,11.1363636 C14.4197244,11.6272307 14.5236749,12.2005333 14.8988636,12.5840909 L14.9465909,12.6318182 C15.2453271,12.9302222 15.4131833,13.3351444 15.4131833,13.7573864 C15.4131833,14.1796283 15.2453271,14.5845505 14.9465909,14.8829545 C14.6481869,15.1816908 14.2432647,15.349547 13.8210227,15.349547 C13.3987807,15.349547 12.9938586,15.1816908 12.6954545,14.8829545 L12.6477273,14.8352273 C12.2641696,14.4600385 11.6908671,14.356088 11.2,14.5727273 C10.7191711,14.7788043 10.4066319,15.2507386 10.4045455,15.7738636 L10.4045455,15.9090909 C10.4045455,16.7877257 9.69227119,17.5 8.81363636,17.5 C7.93500153,17.5 7.22272727,16.7877257 7.22272727,15.9090909 L7.22272727,15.8375 C7.21012457,15.2987154 6.86944345,14.8223928 6.36363636,14.6363636 C5.87276926,14.4197244 5.29946672,14.5236749 4.91590909,14.8988636 L4.86818182,14.9465909 C4.56977777,15.2453271 4.16485562,15.4131833 3.74261364,15.4131833 C3.32037165,15.4131833 2.9154495,15.2453271 2.61704545,14.9465909 C2.31830925,14.6481869 2.15045305,14.2432647 2.15045305,13.8210227 C2.15045305,13.3987807 2.31830925,12.9938586 2.61704545,12.6954545 L2.66477273,12.6477273 C3.03996149,12.2641696 3.14391195,11.6908671 2.92727273,11.2 C2.72119568,10.7191711 2.24926141,10.4066319 1.72613636,10.4045455 L1.59090909,10.4045455 C0.712274262,10.4045455 1.7662639e-16,9.69227119 0,8.81363636 C-8.83131951e-17,7.93500153 0.712274262,7.22272727 1.59090909,7.22272727 L1.6625,7.22272727 C2.20128457,7.21012457 2.67760725,6.86944345 2.86363636,6.36363636 C3.08027559,5.87276926 2.97632513,5.29946672 2.60113636,4.91590909 L2.55340909,4.86818182 C2.25467289,4.56977777 2.08681668,4.16485562 2.08681668,3.74261364 C2.08681668,3.32037165 2.25467289,2.9154495 2.55340909,2.61704545 C2.85181314,2.31830925 3.25673529,2.15045305 3.67897727,2.15045305 C4.10121926,2.15045305 4.50614141,2.31830925 4.80454545,2.61704545 L4.85227273,2.66477273 C5.23583036,3.03996149 5.8091329,3.14391195 6.3,2.92727273 L6.36363636,2.92727273 C6.84446526,2.72119568 7.15700451,2.24926141 7.15909091,1.72613636 L7.15909091,1.59090909 C7.15909091,0.712274262 7.87136517,1.7662639e-16 8.75,0 C9.62863483,0 10.3409091,0.712274262 10.3409091,1.59090909 L10.3409091,1.6625 C10.3429955,2.18562505 10.6555347,2.65755932 11.1363636,2.86363636 C11.6272307,3.08027559 12.2005333,2.97632513 12.5840909,2.60113636 L12.6318182,2.55340909 C12.9302222,2.25467289 13.3351444,2.08681668 13.7573864,2.08681668 C14.1796283,2.08681668 14.5845505,2.25467289 14.8829545,2.55340909 C15.1816908,2.85181314 15.349547,3.25673529 15.349547,3.67897727 C15.349547,4.10121926 15.1816908,4.50614141 14.8829545,4.80454545 L14.8352273,4.85227273 C14.4600385,5.23583036 14.356088,5.8091329 14.5727273,6.3 L14.5727273,6.36363636 C14.7788043,6.84446526 15.2507386,7.15700451 15.7738636,7.15909091 L15.9090909,7.15909091 C16.7877257,7.15909091 17.5,7.87136517 17.5,8.75 C17.5,9.62863483 16.7877257,10.3409091 15.9090909,10.3409091 L15.8375,10.3409091 C15.3143749,10.3429955 14.8424407,10.6555347 14.6363636,11.1363636 Z" id="Shape"></path>
                </g>
            </g>
        </g>
    </g>
</svg>