<?xml version="1.0" encoding="UTF-8"?>
<svg width="115px" height="25px" viewBox="0 0 115 25" version="1.1" xmlns="http://www.w3.org/2000/svg" xmlns:xlink="http://www.w3.org/1999/xlink">
    <!-- Generator: Sketch 43.2 (39069) - http://www.bohemiancoding.com/sketch -->
    <title>logo-white</title>
    <desc>Created with Sketch.</desc>
    <defs></defs>
    <g id="Symbols" stroke="none" stroke-width="1" fill="none" fill-rule="evenodd">
        <g id="logo-white" fill="#FFFFFF">
            <g>
                <path d="M6.014,13.844 L11.624,20.598 L14.506,20.598 L9.644,14.812 C12.284,14.35 13.626,12.282 13.626,10.104 C13.626,7.662 11.954,5.198 8.61,5.198 L3,5.198 L3,20.598 L5.2,20.598 L5.2,7.442 L8.61,7.442 C10.48,7.442 11.404,8.784 11.404,10.104 C11.404,11.446 10.48,12.788 8.61,12.788 L6.014,12.788 L6.014,13.844 Z M17.328,14.02 L24.302,14.02 L24.302,11.776 L17.328,11.776 L17.328,7.442 L24.456,7.442 L24.456,5.22 L15.084,5.22 L15.084,20.598 L24.478,20.598 L24.478,18.376 L17.328,18.376 L17.328,14.02 Z M31.568,16.726 L26.992,5.22 L24.572,5.22 L30.754,20.642 L32.382,20.642 L38.564,5.22 L36.188,5.22 L31.568,16.726 Z M41.8260001,14.02 L48.8000001,14.02 L48.8000001,11.776 L41.8260001,11.776 L41.8260001,7.442 L48.9540001,7.442 L48.9540001,5.22 L39.5820001,5.22 L39.5820001,20.598 L48.9760001,20.598 L48.9760001,18.376 L41.8260001,18.376 L41.8260001,14.02 Z M53.6020001,13.844 L59.2120001,20.598 L62.0940001,20.598 L57.2320001,14.812 C59.8720001,14.35 61.2140001,12.282 61.2140001,10.104 C61.2140001,7.662 59.5420001,5.198 56.1980001,5.198 L50.5880001,5.198 L50.5880001,20.598 L52.7880001,20.598 L52.7880001,7.442 L56.1980001,7.442 C58.0680001,7.442 58.9920001,8.784 58.9920001,10.104 C58.9920001,11.446 58.0680001,12.788 56.1980001,12.788 L53.6020001,12.788 L53.6020001,13.844 Z M73.2100001,9.092 C72.8140001,6.276 70.3500001,5.044 67.9740001,5.044 C66.1920001,5.044 64.3440001,5.748 63.3100001,7.09 C62.6500001,7.948 62.3860001,8.982 62.4740001,10.016 L62.4740001,9.994 C62.7160001,13.206 65.5320001,13.734 67.9300001,13.976 C69.4700001,14.13 71.0540001,14.328 71.3180001,15.494 C71.3620001,15.692 71.3840001,15.868 71.3840001,16.022 C71.3840001,17.606 69.5800001,18.53 67.9300001,18.53 C66.5000001,18.53 64.7620001,17.782 64.6080001,16.352 L64.6080001,16.44 L64.5860001,16.11 L62.3420001,16.154 L62.3640001,16.572 C62.6500001,19.322 65.5320001,20.73 67.9080001,20.73 C70.6800001,20.73 73.6280001,19.014 73.6280001,16.044 C73.6280001,15.736 73.5840001,15.362 73.5180001,15.032 C72.9240001,12.568 70.3060001,12.018 68.1940001,11.754 C66.5440001,11.6 64.8060001,11.402 64.6960001,9.818 C64.6520001,9.29 64.7620001,8.784 65.0700001,8.388 C65.6860001,7.596 66.8300001,7.244 67.8640001,7.222 C69.2060001,7.2 70.7020001,7.794 71.0100001,9.18 L73.2100001,9.092 Z M88.2200001,12.898 C88.2200001,11.314 87.5820001,9.928 86.5920001,8.916 C85.5580001,7.882 84.1280001,7.244 82.6100001,7.244 C81.0920001,7.244 79.6840001,7.882 78.6720001,8.916 C77.6600001,9.928 77.0220001,11.336 77.0220001,12.898 C77.0220001,14.46 77.6600001,15.868 78.6720001,16.88 C79.6840001,17.914 81.0920001,18.552 82.6100001,18.552 C84.1280001,18.552 85.5580001,17.914 86.5920001,16.88 C87.5820001,15.868 88.2200001,14.482 88.2200001,12.898 Z M74.7780001,12.898 C74.7780001,10.72 75.6800001,8.762 77.0660001,7.332 C78.4740001,5.902 80.4540001,5 82.6100001,5 C84.7880001,5 86.7460001,5.902 88.1760001,7.332 C89.5620001,8.762 90.4640001,10.72 90.4640001,12.898 C90.4640001,15.076 89.5620001,17.034 88.1760001,18.464 C86.7460001,19.916 84.7880001,20.796 82.6100001,20.796 C80.4540001,20.796 78.4740001,19.916 77.0660001,18.464 C75.6800001,17.034 74.7780001,15.076 74.7780001,12.898 Z" id="Reverso"></path>
                <path d="M92.684,18.56 C92.288,18.56 91.964,18.86 91.964,19.304 C91.964,19.664 92.288,20.036 92.684,20.036 C93.128,20.036 93.44,19.664 93.44,19.304 C93.44,18.86 93.128,18.56 92.684,18.56 Z M94.508,15.824 C94.508,16.988 94.988,18.044 95.708,18.812 C96.44,19.58 97.472,20.06 98.612,20.06 C100.568,20.06 102.104,18.764 102.584,16.856 L101.396,16.856 C100.964,18.128 99.884,18.86 98.612,18.86 C97.808,18.86 97.076,18.512 96.548,17.96 C96.02,17.408 95.684,16.664 95.684,15.824 C95.684,14.96 96.02,14.216 96.548,13.664 C97.076,13.112 97.808,12.764 98.612,12.764 C99.848,12.764 100.88,13.4 101.324,14.66 L102.524,14.66 C102.044,12.764 100.532,11.564 98.612,11.564 C97.472,11.564 96.44,12.056 95.708,12.812 C94.988,13.58 94.508,14.636 94.508,15.824 Z M110.9,15.8 C110.9,14.936 110.552,14.18 110.012,13.628 C109.448,13.064 108.668,12.716 107.84,12.716 C107.012,12.716 106.244,13.064 105.692,13.628 C105.14,14.18 104.792,14.948 104.792,15.8 C104.792,16.652 105.14,17.42 105.692,17.972 C106.244,18.536 107.012,18.884 107.84,18.884 C108.668,18.884 109.448,18.536 110.012,17.972 C110.552,17.42 110.9,16.664 110.9,15.8 Z M103.568,15.8 C103.568,14.612 104.06,13.544 104.816,12.764 C105.584,11.984 106.664,11.492 107.84,11.492 C109.028,11.492 110.096,11.984 110.876,12.764 C111.632,13.544 112.124,14.612 112.124,15.8 C112.124,16.988 111.632,18.056 110.876,18.836 C110.096,19.628 109.028,20.108 107.84,20.108 C106.664,20.108 105.584,19.628 104.816,18.836 C104.06,18.056 103.568,16.988 103.568,15.8 Z" id=".co"></path>
            </g>
        </g>
    </g>
</svg>