<?xml version="1.0" encoding="UTF-8"?>
<svg width="70px" height="70px" viewBox="0 0 70 70" version="1.1" xmlns="http://www.w3.org/2000/svg" xmlns:xlink="http://www.w3.org/1999/xlink">
    <!-- Generator: Sketch 43.2 (39069) - http://www.bohemiancoding.com/sketch -->
    <title>ic-Android-unselected</title>
    <desc>Created with Sketch.</desc>
    <defs>
        <polygon id="path-1" points="0.037173913 0.340784866 0.037173913 67.9993761 47.0869565 67.9993761 47.0869565 0.340784866 0.037173913 0.340784866"></polygon>
    </defs>
    <g id="Symbols" stroke="none" stroke-width="1" fill="none" fill-rule="evenodd">
        <g id="ic-Android-unselected">
            <g>
                <rect id="Bounds" opacity="0.195199275" x="0" y="0" width="70" height="70"></rect>
                <g id="android-character-symbol" transform="translate(6.000000, 1.000000)">
                    <g id="Group-5">
                        <mask id="mask-2" fill="white">
                            <use xlink:href="#path-1"></use>
                        </mask>
                        <g id="Clip-2"></g>
                        <path d="M4.16038043,22.2559633 C3.00117391,22.2559633 2.01854348,22.6627156 1.21248913,23.476844 C0.403956522,24.2903486 0,25.2654312 0,26.4033394 L0,43.8880734 C0,45.0528073 0.403956522,46.0422385 1.21248913,46.856367 C2.01854348,47.6704954 3.00117391,48.0772477 4.15790217,48.0772477 C5.3171087,48.0772477 6.29230435,47.6704954 7.08658696,46.856367 C7.88272826,46.0422385 8.27925,45.0528073 8.27925,43.8880734 L8.27925,26.4033394 C8.27925,25.2654312 7.87529348,24.2903486 7.06676087,23.476844 C6.25884783,22.6627156 5.29046739,22.2559633 4.16038043,22.2559633 Z" id="Fill-1" fill="#E7E9FC" mask="url(#mask-2)"></path>
                        <path d="M9.89383696,50.1097615 C9.89383696,51.3574679 10.3244348,52.4148991 11.18625,53.2826789 C12.0474457,54.1479633 13.0982283,54.5815413 14.3373587,54.5815413 L17.3261413,54.5815413 L17.3645543,63.8126972 C17.3645543,64.9774312 17.7691304,65.9668624 18.5770435,66.7809908 C19.3855761,67.5944954 20.3539565,67.9993761 21.4840435,67.9993761 C22.64325,67.9993761 23.6258804,67.5944954 24.4319348,66.7809908 C25.2398478,65.9668624 25.6444239,64.9774312 25.6444239,63.8126972 L25.6444239,54.5815413 L31.2180326,54.5815413 L31.2180326,63.8126972 C31.2180326,64.9774312 31.6195109,65.9668624 32.4280435,66.7809908 C33.2365761,67.5944954 34.218587,67.9993761 35.3759348,67.9993761 C36.532663,67.9993761 37.5152935,67.5944954 38.3232065,66.7809908 C39.1317391,65.9668624 39.533837,64.9774312 39.533837,63.8126972 L39.533837,54.5815413 L42.5635109,54.5815413 C43.7735217,54.5815413 44.8094348,54.1504587 45.67125,53.2826789 C46.5324457,52.4148991 46.963663,51.3574679 46.963663,50.1097615 L46.963663,23.0282936 L9.89383696,23.0282936 L9.89383696,50.1097615 Z" id="Fill-3" fill="#E7E9FC" mask="url(#mask-2)"></path>
                        <path d="M37.5952174,6.56168807 L40.4631848,1.2346055 C40.6515326,0.881504587 40.584,0.610752294 40.2593478,0.421100917 C39.9111522,0.260146789 39.6422609,0.340623853 39.453913,0.666899083 L36.546913,6.0332844 C33.9887283,4.89475229 31.283087,4.32455046 28.4299891,4.32455046 C25.5762717,4.32455046 22.8706304,4.89475229 20.3124457,6.0332844 L17.4060652,0.666899083 C17.2170978,0.340623853 16.9482065,0.260146789 16.5975326,0.421100917 C16.2735,0.610752294 16.2078261,0.881504587 16.3967935,1.2346055 L19.2622826,6.56168807 C16.3552826,8.0533211 14.0393478,10.132 12.316337,12.8027156 C10.5933261,15.4734312 9.73151087,18.3930642 9.73151087,21.5659817 L47.0869565,21.5659817 C47.0869565,18.3930642 46.2251413,15.4734312 44.5021304,12.8027156 C42.7791196,10.132 40.4774348,8.0533211 37.5952174,6.56168807 Z M21.0193696,14.3062018 C20.709587,14.6181284 20.339087,14.7740917 19.9084891,14.7740917 C19.4778913,14.7740917 19.1148261,14.6181284 18.8192935,14.3062018 C18.5219022,13.9967706 18.3738261,13.6243303 18.3738261,13.1901284 C18.3738261,12.7565505 18.5219022,12.3834862 18.8192935,12.0715596 C19.1148261,11.759633 19.4778913,11.6036697 19.9084891,11.6036697 C20.339087,11.6036697 20.709587,11.759633 21.0193696,12.0715596 C21.3291522,12.3834862 21.4840435,12.7565505 21.4840435,13.1901284 C21.4840435,13.6243303 21.3291522,13.9942752 21.0193696,14.3062018 Z M38.0400652,14.3062018 C37.7451522,14.6181284 37.3796087,14.7740917 36.9490109,14.7740917 C36.5177935,14.7740917 36.1503913,14.6181284 35.8406087,14.3062018 C35.5308261,13.9967706 35.3759348,13.6243303 35.3759348,13.1901284 C35.3759348,12.7565505 35.5308261,12.3834862 35.8406087,12.0715596 C36.1503913,11.759633 36.5177935,11.6036697 36.9490109,11.6036697 C37.3796087,11.6036697 37.7451522,11.759633 38.0400652,12.0715596 C38.3355978,12.3834862 38.4855326,12.7565505 38.4855326,13.1901284 C38.4855326,13.6243303 38.3355978,13.9942752 38.0400652,14.3062018 Z" id="Fill-4" fill="#E7E9FC" mask="url(#mask-2)"></path>
                    </g>
                    <path d="M55.6468696,23.4568807 C54.8389565,22.6552294 53.8563261,22.2559633 52.6995978,22.2559633 C51.5688913,22.2559633 50.5986522,22.6552294 49.7925978,23.4568807 C48.9840652,24.2566606 48.5801087,25.2386055 48.5801087,26.4033394 L48.5801087,43.8880734 C48.5801087,45.0528073 48.9840652,46.0422385 49.7925978,46.856367 C50.5986522,47.6704954 51.5688913,48.0772477 52.6995978,48.0772477 C53.8563261,48.0772477 54.8389565,47.6704954 55.6468696,46.856367 C56.4554022,46.0422385 56.8593587,45.0528073 56.8593587,43.8880734 L56.8593587,26.4033394 C56.8593587,25.2386055 56.4554022,24.2566606 55.6468696,23.4568807 Z" id="Fill-6" fill="#E7E9FC"></path>
                </g>
            </g>
        </g>
    </g>
</svg>