<?xml version="1.0" encoding="UTF-8"?>
<svg width="70px" height="70px" viewBox="0 0 70 70" version="1.1" xmlns="http://www.w3.org/2000/svg" xmlns:xlink="http://www.w3.org/1999/xlink">
    <!-- Generator: Sketch 43.2 (39069) - http://www.bohemiancoding.com/sketch -->
    <title>ic-apple-selected</title>
    <desc>Created with Sketch.</desc>
    <defs>
        <polygon id="path-1" points="55.8322077 1.58416085e-14 0.0168 1.58416085e-14 0.0168 68 55.8322077 68 55.8322077 0"></polygon>
    </defs>
    <g id="Symbols" stroke="none" stroke-width="1" fill="none" fill-rule="evenodd">
        <g id="ic-apple-selected">
            <g>
                <rect id="Bounds" opacity="0.195199275" x="0" y="0" width="70" height="70"></rect>
                <g id="apple" transform="translate(7.000000, 1.000000)">
                    <mask id="mask-2" fill="white">
                        <use xlink:href="#path-1"></use>
                    </mask>
                    <g id="Clip-2"></g>
                    <path d="M2.88092,24.9969672 C-2.89408,34.9731803 0.77756,50.1118197 7.16408,59.2909836 C10.35244,63.8807049 13.58,68 18.00204,68 C18.0852,68 18.16836,67.9988852 18.25348,67.9947049 C20.33052,67.9130492 21.83244,67.2759672 23.28368,66.6609016 C24.91244,65.9697541 26.59776,65.2554754 29.24152,65.2554754 C31.75592,65.2554754 33.3606,65.9469016 34.91264,66.6151967 C36.44144,67.2740164 38.01756,67.9554098 40.3452,67.9119344 C45.325,67.8194098 48.38316,63.3743279 51.0804,59.4520656 C53.89552,55.3578525 55.30756,51.382082 55.78356,49.8635082 L55.80316,49.8024754 C55.89388,49.5324262 55.76592,49.2386885 55.50552,49.1188525 C55.49796,49.1155082 55.47164,49.1046393 55.4652,49.1024098 C54.58796,48.7454098 46.8944,45.3490328 46.8146,36.0901639 C46.73928,28.568918 52.5854,24.5867377 53.75776,23.8638197 L53.81264,23.8300984 C53.93948,23.7484426 54.02796,23.6199672 54.05736,23.4719836 C54.08816,23.3248361 54.05652,23.1715574 53.97112,23.0472623 C49.93632,17.1697213 43.75112,16.2848852 41.26164,16.1781475 C40.8996,16.1421967 40.52664,16.1238033 40.15256,16.1238033 C37.22796,16.1238033 34.42684,17.2232295 32.17592,18.1061148 C30.62164,18.7167213 29.2796,19.2426066 28.35448,19.2426066 C27.31428,19.2426066 25.9644,18.7103115 24.40144,18.0930164 C22.31264,17.2667049 19.94356,16.3317049 17.4356,16.3317049 C17.37652,16.3317049 17.31744,16.3328197 17.25948,16.3336557 C11.42848,16.4186557 5.91836,19.7389508 2.88092,24.9969672 Z" id="Fill-1" fill="#545EEE" mask="url(#mask-2)"></path>
                    <path d="M41.26612,-1.04361506e-14 C37.7356,0.143803279 33.5006,2.30670492 30.96856,5.25801639 C28.81704,7.73918033 26.7148,11.8746393 27.26948,16.0440984 C27.30336,16.3055082 27.51644,16.507 27.7802,16.5265082 C28.01848,16.5449016 28.26264,16.5546557 28.50428,16.5546557 C31.95724,16.5546557 35.68152,14.654 38.22448,11.5928852 C40.90184,8.36065574 42.25592,4.21181967 41.84572,0.496344262 C41.81408,0.205672131 41.55592,-0.0108688525 41.26612,-1.04361506e-14 Z" id="Fill-3" fill="#545EEE" mask="url(#mask-2)"></path>
                </g>
                <g id="ic-Radio-on" transform="translate(54.000000, 54.000000)" fill="#38C885">
                    <path d="M7,14 C3.13400675,14 0,10.8659932 0,7 C0,3.13400675 3.13400675,0 7,0 C10.8659932,0 14,3.13400675 14,7 C14,10.8659932 10.8659932,14 7,14 Z M5.87018537,10.7168175 L10.7405171,5.1109781 L10.2018927,4.57366423 L5.87018537,8.10070073 L4.48875122,6.34887591 L3.38835122,7.49337226 L5.87018537,10.7168175 Z"></path>
                </g>
            </g>
        </g>
    </g>
</svg>