<?xml version="1.0" encoding="UTF-8"?>
<svg width="70px" height="70px" viewBox="0 0 70 70" version="1.1" xmlns="http://www.w3.org/2000/svg" xmlns:xlink="http://www.w3.org/1999/xlink">
    <!-- Generator: Sketch 43.2 (39069) - http://www.bohemiancoding.com/sketch -->
    <title>ic-desktop-unselected</title>
    <desc>Created with Sketch.</desc>
    <defs>
        <polygon id="path-1" points="0 47.9932235 56.962 47.9932235 56.962 0.00993882353 0 0.00993882353"></polygon>
    </defs>
    <g id="Symbols" stroke="none" stroke-width="1" fill="none" fill-rule="evenodd">
        <g id="ic-desktop-unselected">
            <g>
                <rect id="Bounds" opacity="0.195199275" x="0" y="0" width="70" height="70"></rect>
                <g id="monitor" transform="translate(7.000000, 11.000000)">
                    <mask id="mask-2" fill="white">
                        <use xlink:href="#path-1"></use>
                    </mask>
                    <g id="Clip-2"></g>
                    <path d="M3.56385714,32.4470965 L53.3981429,32.4470965 L53.3981429,3.56442353 L3.56385714,3.56442353 L3.56385714,32.4470965 Z M28.4253571,38.2007718 C27.6875238,38.2007718 27.090381,37.6039906 27.090381,36.8676141 C27.090381,36.1316894 27.6875238,35.5349082 28.4253571,35.5349082 C29.1627381,35.5349082 29.7603333,36.1316894 29.7603333,36.8676141 C29.7603333,37.6039906 29.1631905,38.2007718 28.4253571,38.2007718 Z M52.9263095,0.00993882353 L4.04790476,0.00993882353 C1.82219048,0.00993882353 0.0113095238,1.81790118 0.0113095238,4.04058353 L0,37.2967906 C0,39.5190212 1.80997619,41.3342118 4.03569048,41.3342118 L20.0273571,41.3342118 L20.0273571,45.3332329 L16.9045714,45.3332329 C16.6589286,45.3332329 16.4675714,45.5419482 16.4675714,45.7872565 L16.4675714,47.5414588 C16.4675714,47.7867671 16.6584762,48 16.9045714,48 L39.976,48 C40.2207381,48 40.4944286,47.7867671 40.4944286,47.5414588 L40.4944286,45.7872565 C40.4944286,45.5419482 40.2207381,45.3332329 39.976,45.3332329 L36.9346429,45.3332329 L36.9346429,41.3342118 L52.9154524,41.3342118 C55.1393571,41.3342118 56.9515952,39.5190212 56.9515952,37.2967906 L56.962,4.04419765 C56.9624524,1.82106353 55.1520238,0.00993882353 52.9263095,0.00993882353 L52.9263095,0.00993882353 Z" id="Fill-1" fill="#E7E9FC" mask="url(#mask-2)"></path>
                </g>
            </g>
        </g>
    </g>
</svg>