<?xml version="1.0" encoding="UTF-8"?>
<svg width="20px" height="20px" viewBox="0 0 20 20" version="1.1" xmlns="http://www.w3.org/2000/svg" xmlns:xlink="http://www.w3.org/1999/xlink">
    <!-- Generator: Sketch 43.2 (39069) - http://www.bohemiancoding.com/sketch -->
    <title>ic-sort</title>
    <desc>Created with Sketch.</desc>
    <defs>
        <polygon id="path-1" points="13.9736022 0.0138507463 0 0.0138507463 0 15.9522866 13.9736022 15.9522866 13.9736022 0.0138507463"></polygon>
    </defs>
    <g id="Symbols" stroke="none" stroke-width="1" fill="none" fill-rule="evenodd">
        <g id="ic-sort">
            <g id="ic-filter">
                <g>
                    <g id="ic-settings">
                        <rect id="Bounds" x="0" y="0" width="20" height="20"></rect>
                        <g id="sort" transform="translate(1.000000, 2.000000)">
                            <mask id="mask-2" fill="white">
                                <use xlink:href="#path-1"></use>
                            </mask>
                            <g id="Clip-2"></g>
                            <path d="M4.88095238,12.747797 C5.23714286,12.747797 5.52847619,12.4554507 5.52847619,12.0981493 L5.52847619,0.666077612 C5.52847619,0.417002985 5.38819048,0.189755224 5.1722381,0.0815761194 C4.95647619,-0.026841791 4.68657143,-0.00520597015 4.49238095,0.146483582 L0.261142857,3.32933731 C-0.0301428571,3.54574328 -0.0842857143,3.94631642 0.131714286,4.23866269 C0.347666667,4.53100896 0.746857143,4.58512239 1.03833333,4.36852537 L4.2332381,1.96513433 L4.2332381,12.0981493 C4.2332381,12.4554507 4.5247619,12.747797 4.88095238,12.747797 Z" id="Fill-1" fill="#545EEE" mask="url(#mask-2)"></path>
                            <path d="M9.09038095,3.32933731 C8.73419048,3.32933731 8.44290476,3.62149254 8.44290476,3.97874627 L8.44290476,15.3026388 C8.44290476,15.5517134 8.58314286,15.7681194 8.79890476,15.8873313 C8.89619048,15.9306507 8.99328571,15.9522866 9.09038095,15.9522866 C9.23066667,15.9522866 9.36028571,15.9089672 9.479,15.8224239 L13.7101905,12.6936836 C14.0014762,12.4770866 14.055619,12.0765134 13.8504286,11.7843582 C13.6344762,11.4920119 13.2351429,11.4378985 12.9438095,11.6435104 L9.73809524,14.0143761 L9.73809524,3.97874627 C9.73809524,3.62149254 9.44661905,3.32933731 9.09038095,3.32933731 Z" id="Fill-3" fill="#545EEE" mask="url(#mask-2)"></path>
                        </g>
                        <polygon id="dropdown" fill="#545EEE" transform="translate(17.000000, 11.000000) scale(1, -1) translate(-17.000000, -11.000000) " points="17 10 19 12 15 12"></polygon>
                    </g>
                </g>
            </g>
        </g>
    </g>
</svg>